<svg xmlns="http://www.w3.org/2000/svg" viewBox="0 0 64 64" fill="none">
  <defs>
    <filter id="sk" x="-15%" y="-15%" width="130%" height="130%">
      <feTurbulence type="fractalNoise" baseFrequency="0.04" numOctaves="2" seed="3" result="t"/>
      <feDisplacementMap in="SourceGraphic" in2="t" scale="1.8"/>
    </filter>
  </defs>
  <g filter="url(#sk)" stroke="#333e4d" stroke-width="2.4" stroke-linecap="round" stroke-linejoin="round">
    <!-- Left page -->
    <path d="M32 14 C26 12 16 11 8 13 L8 54 C16 52 26 53 32 56 Z"/>
    <!-- Right page -->
    <path d="M32 14 C38 12 48 11 56 13 L56 54 C48 52 38 53 32 56 Z"/>
    <!-- Spine -->
    <line x1="32" y1="14" x2="32" y2="56"/>
    <!-- Left page lines -->
    <line x1="13" y1="22" x2="27" y2="22"/>
    <line x1="13" y1="29" x2="27" y2="29"/>
    <line x1="13" y1="36" x2="27" y2="36"/>
    <!-- Right page lines -->
    <line x1="37" y1="22" x2="51" y2="22"/>
    <line x1="37" y1="29" x2="51" y2="29"/>
    <line x1="37" y1="36" x2="51" y2="36"/>
  </g>
</svg>
